<?xml version="1.0" encoding="UTF-8"?>
<svg width="752pt" height="752pt" version="1.1" viewBox="0 0 752 752" xmlns="http://www.w3.org/2000/svg">
 <defs>
  <clipPath id="a">
   <path d="m139.21 139.21h473.58v473.58h-473.58z"/>
  </clipPath>
 </defs>
 <path d="m305.46 403.64c-5.707 5.707-8.832 13.262-8.832 21.312s3.125 15.629 8.832 21.312c5.8711 5.8711 13.59 8.8086 21.312 8.8086 7.7188 0 15.461-2.9375 21.312-8.8086 5.707-5.707 8.832-13.262 8.832-21.312s-3.125-15.629-8.832-21.312c-11.746-11.77-30.879-11.77-42.625 0zm31.469 31.445c-5.6133 5.6133-14.727 5.6133-20.34 0-2.6992-2.6992-4.2148-6.3242-4.2148-10.16 0.023438-3.8359 1.5156-7.4336 4.2148-10.16 2.793-2.793 6.4883-4.1914 10.16-4.1914s7.3633 1.4219 10.184 4.1914c2.6992 2.6992 4.2148 6.3242 4.2148 10.16-0.003907 3.8359-1.5195 7.4375-4.2188 10.16z"/>
 <path d="m246.15 458.3c3.3008 3.3008 3.3008 8.6523 0 11.953-3.3008 3.3047-8.6562 3.3047-11.957 0-3.3008-3.3008-3.3008-8.6523 0-11.953 3.3008-3.3008 8.6562-3.3008 11.957 0"/>
 <path d="m482.3 190.68c3.3047 3.3008 3.3047 8.6523 0 11.953-3.3008 3.3008-8.6523 3.3008-11.953 0s-3.3008-8.6523 0-11.953c3.3008-3.3008 8.6523-3.3008 11.953 0"/>
 <path d="m427.2 214.3c3.3008 3.3008 3.3008 8.6523 0 11.957-3.3047 3.3008-8.6562 3.3008-11.957 0-3.3008-3.3047-3.3008-8.6562 0-11.957 3.3008-3.3008 8.6523-3.3008 11.957 0"/>
 <path d="m561.02 269.41c3.3008 3.3008 3.3008 8.6523 0 11.953-3.3008 3.3047-8.6562 3.3047-11.957 0-3.3008-3.3008-3.3008-8.6523 0-11.953s8.6562-3.3008 11.957 0"/>
 <path d="m537.4 324.49c3.3008 3.3008 3.3008 8.6523 0 11.953-3.3008 3.3047-8.6523 3.3047-11.953 0-3.3008-3.3008-3.3008-8.6523 0-11.953s8.6523-3.3008 11.953 0"/>
 <path d="m198.94 458.3c3.3008 3.3008 3.3008 8.6562 0 11.957-3.3047 3.3008-8.6562 3.3008-11.957 0-3.3008-3.3008-3.3008-8.6562 0-11.957s8.6523-3.3008 11.957 0"/>
 <path d="m230.4 521.27c3.3008 3.3008 3.3008 8.6523 0 11.957-3.3008 3.3008-8.6523 3.3008-11.953 0-3.3008-3.3047-3.3008-8.6562 0-11.957s8.6523-3.3008 11.953 0"/>
 <path d="m293.39 552.77c3.3008 3.3008 3.3008 8.6523 0 11.953-3.3008 3.3047-8.6523 3.3047-11.953 0-3.3008-3.3008-3.3008-8.6523 0-11.953 3.3008-3.3008 8.6523-3.3008 11.953 0"/>
 <path d="m261.92 489.77c3.3008 3.3008 3.3008 8.6562 0 11.957-3.3008 3.3008-8.6562 3.3008-11.957 0-3.3008-3.3008-3.3008-8.6562 0-11.957 3.3008-3.3008 8.6562-3.3008 11.957 0"/>
 <path d="m293.39 505.54c3.3047 3.3008 3.3047 8.6523 0 11.953-3.3008 3.3008-8.6523 3.3008-11.953 0s-3.3008-8.6523 0-11.953c3.3008-3.3047 8.6523-3.3047 11.953 0"/>
 <g clip-path="url(#a)">
  <path d="m610.43 238.71-34.715-34.715c-1.2539-1.2539-2.9609-1.9648-4.7344-1.9648-1.7773 0-3.4805 0.71094-4.7344 1.9648l-50.34 50.34-18.328-18.328 50.316-50.34c2.6289-2.6289 2.6289-6.8672 0-9.4961l-34.738-34.711c-1.9648-1.9648-4.9258-2.5117-7.4844-1.3984l-255.43 113.54c-0.26172 0.11719-0.49609 0.23828-0.75781 0.40234-9.9453 4.5234-19.582 9.9688-28.652 16.172l-2.2266 1.5391c-1.4688 1.0195-2.4844 2.5586-2.793 4.3086-0.33203 1.7539 0.070312 3.5742 1.0898 5.043l1.5859 2.2969-33.293 33.293-2.2969-1.5859c-1.4688-1.0195-3.293-1.3984-5.043-1.0898-1.7539 0.33203-3.3164 1.3242-4.3086 2.793l-1.5391 2.2266c-51.004 74.352-41.676 174.66 22.188 238.5 8.9258 8.9258 18.777 16.977 29.242 23.891 10.254 6.7734 21.215 12.574 32.582 17.191 11.223 4.5703 22.945 8.0742 34.855 10.395 11.84 2.3203 23.988 3.4805 36.039 3.4805 18.562 0 36.938-2.7461 54.629-8.1445 18.184-5.5391 35.375-13.852 51.125-24.648l2.2266-1.5391c1.4688-1.0195 2.4844-2.5586 2.793-4.3086 0.33203-1.7539-0.070312-3.5742-1.0898-5.043l-1.7539-2.5352 33.246-33.246 2.5352 1.7539c1.4688 1.0195 3.293 1.3984 5.043 1.0898 1.7539-0.33203 3.3164-1.3242 4.3086-2.793l1.5391-2.2266c5.3047-7.7188 10.016-15.816 14.02-24.082l25.195 14.02c2.6289 1.4688 5.8945 0.99609 8.0039-1.1133l33.078-33.078c0.26172-0.26172 0.49609-0.54297 0.71094-0.85156l40.824-57.137c1.918-2.6758 1.6094-6.3242-0.71094-8.6445l-26.809-26.879c-2.3203-2.3203-5.9688-2.6289-8.6445-0.71094l-29.766 21.266 74.375-167.39c1.1406-2.5586 0.59766-5.543-1.3672-7.5078zm-38.41-13.875m-69.473 42.859-88.984 88.984-18.328-18.328 88.984-88.984zm-125.38 248.3 5.1367 7.4336c-7.0312 3.9766-14.516 7.1992-22.234 9.5664-7.7188 2.3672-15.723 3.9062-23.844 4.5703v-48.258c6.4648-0.94531 12.691-2.8164 18.562-5.6367l3.1016 4.4766c1.5859 3.0312 4.7578 5.0898 8.4062 5.0898 5.2344 0 9.4961-4.2383 9.4961-9.4961 0-2.4141-0.89844-4.5938-2.3672-6.2734l-2.9844-4.332c0.82812-0.75781 1.6094-1.4688 2.3438-2.1797l0.046875-0.046875c0.78125-0.78125 1.5156-1.5625 2.2031-2.3438l49.891 34.547-19.938 19.938-12.43-17.949c-0.35547-0.64062-0.75781-1.2305-1.2305-1.7773l-0.070312-0.09375c-1.7305-1.9414-4.2617-3.1484-7.0547-3.1484-5.2344 0-9.4961 4.2383-9.4961 9.4961 0 2.4883 0.92188 4.7109 2.4609 6.418zm8.3594-63.059c0.94531-1.9648 1.7773-3.9531 2.4844-5.9453l42.219 23.441c-1.5156 3.4336-3.1953 6.7734-4.9961 9.9922zm-4.4258-63.812c-2.4141-3.6719-5.2109-7.1055-8.3125-10.207-3.0547-3.0547-6.3945-5.8008-9.9922-8.168l19.062-19.062 18.328 18.328zm-21.691-72.363c7.5547 2.25 14.848 5.3047 21.715 9.0703l-36.539 36.488c-2.793-0.78125-5.5898-1.375-8.3828-1.7773v-48.141c7.8867 0.64062 15.676 2.1094 23.207 4.3594zm-23.207-23.23v-37.012c15.391 0.85156 30.477 3.7422 44.848 8.6211 14.301 4.8555 27.918 11.648 40.492 20.223l-26.664 26.664c-17.637-10.66-37.883-17.027-58.676-18.496zm89.84 77.312c3.3867 6.1797 6.1797 12.715 8.3359 19.418 2.1328 6.6289 3.6484 13.52 4.5234 20.457l-41.77-11.012zm79.68-210.15 20.246 20.246-90.902 90.902c-14.848-10.539-31.043-18.824-48.164-24.602-17.332-5.8477-35.496-9.1172-54.059-9.7305zm-228.81 103.03c13.07-4.0273 26.664-6.4648 40.469-7.1992v37.035c-9.9219 0.71094-19.75 2.5117-29.219 5.3984-9.6602 2.9375-18.941 6.9844-27.609 12.027l-21.027-30.379c11.742-7.1992 24.312-12.855 37.387-16.883zm-48.52 82.852 20.008-20.008 34.715 50.152c-0.82812 0.75781-1.6094 1.4922-2.3672 2.2031-0.78125 0.78125-1.5156 1.5859-2.25 2.3906zm39.637 50.391c-2.8164 5.8477-4.7109 12.078-5.6602 18.562l-48.207 0.003907c0.66406-8.1211 2.2031-16.125 4.5703-23.844 2.3672-7.7188 5.5898-15.203 9.5664-22.234zm3.2461-70.492c7.0781-3.9766 14.609-7.1992 22.426-9.5898 7.6719-2.3438 15.629-3.8594 23.68-4.5v48.164c-6.4648 0.94531-12.715 2.8164-18.59 5.6367zm-41.863-27.371 8.0977 11.723-24.863 24.863-11.723-8.0977zm-64.008 76.457c4.0742-13.285 9.7812-26.023 17-37.91l30.355 21.027c-5.043 8.6445-9.0938 17.855-12.027 27.398-2.9375 9.5195-4.7812 19.418-5.4922 29.457h-36.938c0.75781-13.594 3.125-27.02 7.1016-39.973zm151.95 217.82c-41.461-2.3438-80.438-19.773-109.87-49.18-29.41-29.41-46.836-68.363-49.18-109.87h104.07c2.0117 13.945 8.3359 26.566 18.375 36.609 10.039 10.039 22.66 16.363 36.609 18.375zm9.4258-122.21c-12.359 0-23.965-4.8086-32.699-13.543-8.7383-8.7383-13.543-20.34-13.543-32.699s4.8086-23.965 13.543-32.699c8.7383-8.7383 20.34-13.543 32.699-13.543 12.359 0 23.965 4.8086 32.699 13.543 8.7383 8.7383 13.543 20.34 13.543 32.699s-4.8086 23.965-13.543 32.699c-8.7383 8.7344-20.34 13.543-32.699 13.543zm49.371 115.13c-12.953 3.9531-26.379 6.3477-39.945 7.1055l-0.003907-36.965c10.016-0.71094 19.914-2.5586 29.457-5.4922 9.543-2.9375 18.754-6.9844 27.398-12.027l21.027 30.355c-11.91 7.2422-24.652 12.973-37.934 17.023zm47.832-35.758-8.0977-11.723 24.793-24.793 11.723 8.0977zm47.191-38.312-30.355-21.027c2.1562-3.6953 4.1445-7.5547 5.9688-11.555l32.297 17.949c-2.4648 5.1133-5.1172 10.016-7.9102 14.633zm15.105-32.18-94.48-52.496c0.023437-0.80469 0.046875-1.6562 0.046875-2.6055 0-2.3438-0.14062-4.7578-0.40234-7.1992l102.86 27.066c-1.3945 12.004-4.0938 23.844-8.0273 35.234zm9.1875-54.438-37.105-9.7812c-0.71094-10.395-2.6523-20.695-5.7539-30.594-3.1016-9.8516-7.3867-19.32-12.738-28.227l26.641-26.664c8.8086 12.953 15.723 26.992 20.578 41.77 5.043 15.367 7.8633 31.516 8.3359 47.949 0.019531 1.6875 0.042969 3.4375 0.042969 5.5469zm26.449 74.234-18.918-10.512c4.5469-12.457 7.7656-25.359 9.543-38.453l29.172 29.172zm47.855-86.238 12.312 12.312-8.5703 12.027-15.77-15.77zm-27.562 19.676 20.199 20.199-8.5703 12.027-23.633-23.633zm-27.988-13.875c-0.54297-18.684-3.8125-37.035-9.6836-54.484-5.7539-17.074-13.996-33.246-24.508-48.07l90.926-90.926 20.27 20.246z"/>
 </g>
</svg>
